<svg xmlns="http://www.w3.org/2000/svg" xmlns:xlink="http://www.w3.org/1999/xlink" width="3000" zoomAndPan="magnify" viewBox="0 0 2250 2250.000011" height="3000" preserveAspectRatio="xMidYMid meet" version="1.0"><defs><clipPath id="64e6f44bd4"><path d="M 136.949219 118.152344 L 2113.070312 118.152344 L 2113.070312 2131 L 136.949219 2131 Z M 136.949219 118.152344 " clip-rule="nonzero"/></clipPath><clipPath id="ef3b023817"><path d="M 164 377 L 2113.070312 377 L 2113.070312 2131 L 164 2131 Z M 164 377 " clip-rule="nonzero"/></clipPath><clipPath id="347bd4c37b"><path d="M 136.949219 118.152344 L 1935 118.152344 L 1935 1980 L 136.949219 1980 Z M 136.949219 118.152344 " clip-rule="nonzero"/></clipPath></defs><g clip-path="url(#64e6f44bd4)"><path fill="#4310a8" d="M 1813.863281 508.039062 L 1814.148438 507.863281 L 1659.9375 377.914062 L 1659.550781 377.875 C 1473.613281 208.910156 1197.808594 118.339844 845.171875 118.339844 L 212.59375 118.339844 C 170.820312 118.339844 136.949219 152.210938 136.949219 193.980469 L 136.949219 1903.535156 C 136.949219 1927.242188 147.878906 1948.382812 164.945312 1962.257812 L 164.9375 1962.292969 L 341.222656 2111.519531 C 342.316406 2112.492188 343.425781 2113.445312 344.570312 2114.355469 L 345.511719 2115.148438 C 345.511719 2115.148438 345.542969 2115.078125 345.542969 2115.074219 C 358.273438 2124.808594 374.128906 2130.65625 391.390625 2130.65625 L 1178.152344 2130.65625 C 1446.632812 2130.65625 1678.148438 2045.886719 1847.691406 1885.503906 C 2021.328125 1721.25 2113.105469 1492.914062 2113.105469 1225.179688 C 2113.105469 914.074219 2008.632812 671.167969 1813.863281 508.039062 Z M 1161.773438 1071.4375 C 1161.773438 1158.550781 1132.273438 1215.753906 1088.28125 1252.839844 L 1088.28125 998.988281 C 1088.28125 975.910156 1108.859375 958.183594 1131.699219 961.496094 C 1137.503906 962.34375 1142.976562 963.449219 1148.523438 964.496094 C 1157.378906 995.375 1161.773438 1030.894531 1161.773438 1071.4375 Z M 1161.773438 1071.4375 " fill-opacity="1" fill-rule="nonzero"/></g><g clip-path="url(#ef3b023817)"><path fill="#000000" d="M 2113.105469 1225.183594 C 2113.105469 1492.917969 2021.328125 1721.253906 1847.691406 1885.507812 C 1678.148438 2045.890625 1446.632812 2130.660156 1178.152344 2130.660156 L 391.390625 2130.660156 C 374.128906 2130.660156 358.273438 2124.8125 345.542969 2115.078125 C 345.542969 2115.085938 345.511719 2115.152344 345.511719 2115.152344 L 344.570312 2114.359375 C 343.425781 2113.449219 342.316406 2112.496094 341.222656 2111.523438 L 164.941406 1962.292969 L 164.949219 1962.257812 C 177.957031 1972.820312 194.53125 1979.179688 212.597656 1979.179688 L 999.359375 1979.179688 C 1267.839844 1979.179688 1499.355469 1894.414062 1668.898438 1734.027344 C 1842.53125 1569.773438 1934.308594 1341.4375 1934.308594 1073.703125 C 1934.308594 775.886719 1838.582031 540.550781 1659.558594 377.875 L 1659.945312 377.914062 L 1814.15625 507.863281 L 1813.871094 508.039062 C 2008.632812 671.167969 2113.105469 914.074219 2113.105469 1225.183594 Z M 1088.28125 998.992188 C 1088.28125 975.914062 1108.859375 958.1875 1131.699219 961.5 C 1137.503906 962.347656 1142.976562 963.453125 1148.523438 964.5 C 1122.976562 875.355469 1059.667969 825.503906 952.902344 810.023438 C 930.0625 806.710938 909.484375 824.425781 909.484375 847.511719 L 909.484375 1272.0625 C 909.484375 1295.148438 930.035156 1313.152344 952.828125 1309.519531 C 1002.585938 1301.582031 1050.707031 1284.519531 1088.28125 1252.839844 Z M 1088.28125 998.992188 " fill-opacity="1" fill-rule="nonzero"/></g><g clip-path="url(#347bd4c37b)"><path fill="#4310a8" d="M 999.355469 1979.179688 C 1267.832031 1979.179688 1499.351562 1894.414062 1668.894531 1734.027344 C 1842.527344 1569.773438 1934.304688 1341.4375 1934.304688 1073.703125 C 1934.304688 775.886719 1838.574219 540.550781 1659.554688 377.875 C 1473.613281 208.910156 1197.808594 118.339844 845.175781 118.339844 L 212.59375 118.339844 C 170.820312 118.339844 136.949219 152.210938 136.949219 193.980469 L 136.949219 1903.535156 C 136.949219 1927.242188 147.878906 1948.382812 164.945312 1962.257812 C 177.953125 1972.820312 194.527344 1979.179688 212.59375 1979.179688 Z M 952.824219 1309.519531 C 930.03125 1313.148438 909.480469 1295.144531 909.480469 1272.0625 L 909.480469 847.511719 C 909.480469 824.425781 930.058594 806.710938 952.898438 810.023438 C 1059.667969 825.503906 1122.976562 875.355469 1148.519531 964.5 C 1157.375 995.375 1161.769531 1030.898438 1161.769531 1071.441406 C 1161.769531 1158.554688 1132.269531 1215.757812 1088.277344 1252.84375 C 1050.707031 1284.519531 1002.585938 1301.582031 952.824219 1309.519531 Z M 1810.910156 732.511719 C 1858 865.035156 1872.507812 1011.164062 1861.988281 1150.992188 C 1859.601562 1182.765625 1837.898438 1206.257812 1805.257812 1207.726562 C 1776.214844 1209.023438 1746.296875 1180.652344 1748.523438 1150.992188 C 1753.8125 1080.703125 1752.175781 1009.714844 1743.792969 939.726562 C 1743.828125 940.035156 1742.800781 932.210938 1742.515625 929.894531 C 1742.195312 927.777344 1741.773438 924.90625 1741.699219 924.410156 C 1740.46875 916.261719 1739.132812 908.125 1737.691406 900.007812 C 1734.855469 884.089844 1731.609375 868.242188 1727.925781 852.5 C 1720.8125 822.078125 1711.957031 792.113281 1701.5 762.675781 C 1690.863281 732.742188 1713.613281 701.796875 1741.128906 692.894531 C 1771.75 682.980469 1801 704.617188 1810.910156 732.511719 Z M 1746.898438 610.609375 C 1748.269531 641.25 1719.84375 667.339844 1690.167969 667.339844 C 1658.359375 667.339844 1634.808594 641.347656 1633.4375 610.609375 C 1632.0625 579.96875 1660.488281 553.878906 1690.167969 553.878906 C 1721.96875 553.878906 1745.523438 579.871094 1746.898438 610.609375 Z M 1746.898438 610.609375 " fill-opacity="1" fill-rule="nonzero"/></g><path fill="#ecedea" d="M 1810.910156 732.511719 C 1858 865.035156 1872.507812 1011.164062 1861.988281 1150.992188 C 1859.601562 1182.765625 1837.898438 1206.257812 1805.257812 1207.726562 C 1776.214844 1209.023438 1746.296875 1180.652344 1748.523438 1150.992188 C 1753.8125 1080.703125 1752.175781 1009.714844 1743.792969 939.726562 C 1743.828125 940.035156 1742.800781 932.210938 1742.515625 929.894531 C 1742.195312 927.777344 1741.773438 924.90625 1741.699219 924.410156 C 1740.46875 916.261719 1739.132812 908.125 1737.691406 900.007812 C 1734.855469 884.089844 1731.609375 868.242188 1727.925781 852.5 C 1720.8125 822.078125 1711.957031 792.113281 1701.5 762.675781 C 1690.863281 732.742188 1713.613281 701.796875 1741.128906 692.894531 C 1771.75 682.980469 1801 704.617188 1810.910156 732.511719 Z M 1633.433594 610.609375 C 1634.804688 641.351562 1658.355469 667.339844 1690.164062 667.339844 C 1719.839844 667.339844 1748.269531 641.246094 1746.894531 610.609375 C 1745.515625 579.871094 1721.960938 553.878906 1690.164062 553.878906 C 1660.488281 553.878906 1632.058594 579.972656 1633.433594 610.609375 Z M 1633.433594 610.609375 " fill-opacity="1" fill-rule="nonzero"/></svg>